<?xml version="1.0" encoding="UTF-8"?>
<svg width="390px" height="390px" viewBox="0 0 390 390" version="1.1" xmlns="http://www.w3.org/2000/svg" xmlns:xlink="http://www.w3.org/1999/xlink">
    <g stroke="none" stroke-width="1" fill="none" fill-rule="evenodd">
        <g transform="translate(193.000000, 197.500000) rotate(45.000000) translate(-193.000000, -197.500000) translate(26.000000, -24.000000)">
            <path d="M71.3029918,397.447669 C56.4179491,334.024716 48.9754278,273.926931 48.9754278,217.154316 C48.9754278,159.319648 56.6990099,99.9402641 72.1461741,39.0161637 L106.896874,62.1832969 C121.980202,56.372318 138.120319,52.6890729 154.949436,51.5013587 L154.949436,384.400352 C138.120319,383.212638 121.980202,379.529393 106.896889,373.71842 L71.3029918,397.447669 Z M29.3780553,312.537539 C10.8488814,285.654929 -4.54747351e-13,253.069838 -4.54747351e-13,217.950856 C-4.54747351e-13,182.870752 10.8248735,150.318933 29.3165437,123.453476 C25.3950579,153.838547 23.4343119,185.019727 23.4343119,216.997005 C23.4343119,249.141039 25.415561,280.987886 29.3780594,312.537545 Z M262.084834,397.214721 L226.840374,373.718414 C211.757046,379.529393 195.616929,383.212638 178.787811,384.400352 L178.787811,51.5013587 C195.616929,52.6890729 211.757046,56.372318 226.840359,62.1832912 L261.245405,39.2466096 C276.653639,100.090002 284.357757,159.39257 284.357757,217.154316 C284.357757,273.85742 276.933449,333.877555 262.084834,397.214721 Z M303.865281,313.25016 C307.887675,281.467454 309.898873,249.38307 309.898873,216.997005 C309.898873,184.767713 307.9071,153.347117 303.923553,122.735218 C322.718209,149.737851 333.737248,182.557536 333.737248,217.950856 C333.737248,253.380739 322.69543,286.231669 303.865284,313.250155 Z" fill="#7B85FF"></path>
            <g transform="translate(250.059079, 0.000000)"></g>
            <g transform="translate(53.678169, 221.500000) scale(-1, 1) translate(-53.678169, -221.500000) translate(23.678169, 0.000000)"></g>
        </g>
    </g>
</svg>